<svg fill="#e62921" viewBox="0 0 24 24" id="document-alert" data-name="Flat Color" xmlns="http://www.w3.org/2000/svg" class="icon flat-color"><g id="SVGRepo_bgCarrier" stroke-width="0"></g><g id="SVGRepo_tracerCarrier" stroke-linecap="round" stroke-linejoin="round"></g><g id="SVGRepo_iconCarrier"><path id="primary" d="M19.71,4.29l-2-2A1,1,0,0,0,17,2H6A2,2,0,0,0,4,4V20a2,2,0,0,0,2,2H18a2,2,0,0,0,2-2V5A1,1,0,0,0,19.71,4.29Z" style="fill: #e62921;"></path><path id="secondary" d="M20,5H18a1,1,0,0,1-1-1V2a1,1,0,0,1,.71.29l2,2A1,1,0,0,1,20,5Zm-8,9a1.5,1.5,0,1,0,1.5,1.5A1.5,1.5,0,0,0,12,14Zm1-3V8a1,1,0,0,0-2,0v3a1,1,0,0,0,2,0Z" style="fill: #fff;"></path></g></svg>